<svg width="54" height="50" viewBox="0 0 54 50" fill="none" xmlns="http://www.w3.org/2000/svg">
<g filter="url(#filter0_d_344_445)">
<rect x="5" y="5" width="43" height="40" rx="6" fill="white"/>
<rect x="5.3" y="5.3" width="42.4" height="39.4" rx="5.7" stroke="#65B338" stroke-width="0.6"/>
<mask id="path-3-inside-1_344_445" fill="white">
<path d="M5 5H48V17H5V5Z"/>
</mask>
<path d="M5 5H48V17H5V5Z" fill="#F1FFE9"/>
<path d="M48 17V16.4H5V17V17.6H48V17Z" fill="#BBE6A1" mask="url(#path-3-inside-1_344_445)"/>
<circle cx="11" cy="11" r="2" fill="#DEEBD7"/>
<circle cx="17" cy="11" r="2" fill="#DEEBD7"/>
<circle cx="23" cy="11" r="2" fill="#DEEBD7"/>
<rect x="9" y="21" width="15" height="4" rx="1" fill="#65B338"/>
<rect x="9" y="26" width="27" height="4" rx="1" fill="#65B338" fill-opacity="0.18"/>
<rect x="9" y="31" width="7" height="4" rx="1" fill="#65B338" fill-opacity="0.18"/>
<rect x="17" y="31" width="25" height="4" rx="1" fill="#65B338" fill-opacity="0.18"/>
</g>
<g filter="url(#filter1_i_344_445)">
<rect x="38" y="33" width="16" height="16" rx="4" fill="#65B338"/>
<rect x="38.3" y="33.3" width="15.4" height="15.4" rx="3.7" stroke="url(#paint0_linear_344_445)" stroke-width="0.6"/>
<path d="M48.875 37H42.625C42.4592 37 42.3003 37.0658 42.1831 37.1831C42.0658 37.3003 42 37.4592 42 37.625V43.875C42 44.0408 42.0658 44.1997 42.1831 44.3169C42.3003 44.4342 42.4592 44.5 42.625 44.5H48.875C49.0408 44.5 49.1997 44.4342 49.3169 44.3169C49.4342 44.1997 49.5 44.0408 49.5 43.875V37.625C49.5 37.4592 49.4342 37.3003 49.3169 37.1831C49.1997 37.0658 49.0408 37 48.875 37ZM45.3461 41.5961L44.0961 42.8461C44.0671 42.8751 44.0326 42.8982 43.9947 42.9139C43.9567 42.9297 43.9161 42.9377 43.875 42.9377C43.8339 42.9377 43.7933 42.9297 43.7553 42.9139C43.7174 42.8982 43.6829 42.8751 43.6539 42.8461L43.0289 42.2211C42.9703 42.1625 42.9373 42.0829 42.9373 42C42.9373 41.9171 42.9703 41.8375 43.0289 41.7789C43.0875 41.7203 43.1671 41.6873 43.25 41.6873C43.3329 41.6873 43.4125 41.7203 43.4711 41.7789L43.875 42.1832L44.9039 41.1539C44.9625 41.0953 45.0421 41.0623 45.125 41.0623C45.2079 41.0623 45.2875 41.0953 45.3461 41.1539C45.4047 41.2125 45.4377 41.2921 45.4377 41.375C45.4377 41.4579 45.4047 41.5375 45.3461 41.5961ZM45.3461 39.0961L44.0961 40.3461C44.0671 40.3751 44.0326 40.3982 43.9947 40.4139C43.9567 40.4297 43.9161 40.4377 43.875 40.4377C43.8339 40.4377 43.7933 40.4297 43.7553 40.4139C43.7174 40.3982 43.6829 40.3751 43.6539 40.3461L43.0289 39.7211C42.9999 39.6921 42.9768 39.6576 42.9611 39.6197C42.9454 39.5817 42.9373 39.5411 42.9373 39.5C42.9373 39.4171 42.9703 39.3375 43.0289 39.2789C43.0875 39.2203 43.1671 39.1873 43.25 39.1873C43.3329 39.1873 43.4125 39.2203 43.4711 39.2789L43.875 39.6832L44.9039 38.6539C44.9625 38.5953 45.0421 38.5623 45.125 38.5623C45.2079 38.5623 45.2875 38.5953 45.3461 38.6539C45.4047 38.7125 45.4377 38.7921 45.4377 38.875C45.4377 38.9579 45.4047 39.0375 45.3461 39.0961ZM48.25 42.3125H46.375C46.2921 42.3125 46.2126 42.2796 46.154 42.221C46.0954 42.1624 46.0625 42.0829 46.0625 42C46.0625 41.9171 46.0954 41.8376 46.154 41.779C46.2126 41.7204 46.2921 41.6875 46.375 41.6875H48.25C48.3329 41.6875 48.4124 41.7204 48.471 41.779C48.5296 41.8376 48.5625 41.9171 48.5625 42C48.5625 42.0829 48.5296 42.1624 48.471 42.221C48.4124 42.2796 48.3329 42.3125 48.25 42.3125ZM48.25 39.8125H46.375C46.2921 39.8125 46.2126 39.7796 46.154 39.721C46.0954 39.6624 46.0625 39.5829 46.0625 39.5C46.0625 39.4171 46.0954 39.3376 46.154 39.279C46.2126 39.2204 46.2921 39.1875 46.375 39.1875H48.25C48.3329 39.1875 48.4124 39.2204 48.471 39.279C48.5296 39.3376 48.5625 39.4171 48.5625 39.5C48.5625 39.5829 48.5296 39.6624 48.471 39.721C48.4124 39.7796 48.3329 39.8125 48.25 39.8125Z" fill="white"/>
</g>
<defs>
<filter id="filter0_d_344_445" x="0" y="0" width="53" height="50" filterUnits="userSpaceOnUse" color-interpolation-filters="sRGB">
<feFlood flood-opacity="0" result="BackgroundImageFix"/>
<feColorMatrix in="SourceAlpha" type="matrix" values="0 0 0 0 0 0 0 0 0 0 0 0 0 0 0 0 0 0 127 0" result="hardAlpha"/>
<feOffset/>
<feGaussianBlur stdDeviation="2.5"/>
<feComposite in2="hardAlpha" operator="out"/>
<feColorMatrix type="matrix" values="0 0 0 0 0.5375 0 0 0 0 0.5375 0 0 0 0 0.5375 0 0 0 0.59 0"/>
<feBlend mode="normal" in2="BackgroundImageFix" result="effect1_dropShadow_344_445"/>
<feBlend mode="normal" in="SourceGraphic" in2="effect1_dropShadow_344_445" result="shape"/>
</filter>
<filter id="filter1_i_344_445" x="38" y="33" width="16" height="20" filterUnits="userSpaceOnUse" color-interpolation-filters="sRGB">
<feFlood flood-opacity="0" result="BackgroundImageFix"/>
<feBlend mode="normal" in="SourceGraphic" in2="BackgroundImageFix" result="shape"/>
<feColorMatrix in="SourceAlpha" type="matrix" values="0 0 0 0 0 0 0 0 0 0 0 0 0 0 0 0 0 0 127 0" result="hardAlpha"/>
<feOffset dy="4"/>
<feGaussianBlur stdDeviation="2"/>
<feComposite in2="hardAlpha" operator="arithmetic" k2="-1" k3="1"/>
<feColorMatrix type="matrix" values="0 0 0 0 1 0 0 0 0 1 0 0 0 0 1 0 0 0 0.25 0"/>
<feBlend mode="normal" in2="shape" result="effect1_innerShadow_344_445"/>
</filter>
<linearGradient id="paint0_linear_344_445" x1="46" y1="33" x2="46" y2="49" gradientUnits="userSpaceOnUse">
<stop stop-color="#BBE6A1"/>
<stop offset="1" stop-color="#65B338"/>
</linearGradient>
</defs>
</svg>
